<?xml version="1.0" encoding="UTF-8" standalone="no"?>
<!DOCTYPE svg PUBLIC "-//W3C//DTD SVG 1.1//EN" "http://www.w3.org/Graphics/SVG/1.1/DTD/svg11.dtd">
<svg width="100%" height="100%" viewBox="0 0 360 420" version="1.1" xmlns="http://www.w3.org/2000/svg" xmlns:xlink="http://www.w3.org/1999/xlink" xml:space="preserve" xmlns:serif="http://www.serif.com/" style="fill-rule:evenodd;clip-rule:evenodd;stroke-linejoin:round;stroke-miterlimit:2;">
    <g transform="matrix(1,0,0,1,-177.942732,-2191.471942)">
        <g transform="matrix(4.03585,0,0,2.282537,-14507.574835,1749.141613)">
            <g id="Symbol" transform="matrix(5.356833,0,0,9.471644,-12884.680891,175.845462)">
                <path d="M3094.038,6.475C3094.038,6.475 3094.038,6.476 3094.039,6.476C3094.039,6.477 3094.04,6.477 3094.04,6.477C3094.073,6.471 3094.479,6.396 3094.628,6.378C3096.154,6.189 3097.289,6.703 3098.185,7.426C3099.501,8.488 3100.691,10.911 3100.516,13.434C3100.291,16.683 3098.23,19.448 3095.726,20.61C3094.876,21.004 3093.766,21.321 3092.59,21.321C3091.017,21.322 3090.191,20.73 3089.506,20.518C3088.155,20.101 3086.936,19.596 3085.864,18.254C3085.103,17.301 3084.492,15.981 3084.56,13.758C3084.638,11.209 3085.791,8.742 3087.485,7.223C3088.641,6.187 3089.997,5.494 3091.442,5.601C3091.922,5.636 3092.473,5.801 3092.871,6.036C3093.033,6.132 3093.169,6.229 3093.293,6.309C3093.294,6.31 3093.294,6.31 3093.295,6.309C3093.295,6.309 3093.296,6.309 3093.296,6.308C3093.443,4.958 3092.968,4.018 3092.31,3.502C3092.152,3.378 3092.368,3.031 3092.617,2.884C3092.787,2.783 3093.131,2.57 3093.294,2.8C3093.642,3.293 3094.205,4.958 3094.038,6.475ZM3089.637,19.313C3090.236,19.492 3090.285,19.913 3091.273,20.086C3092.493,20.299 3093.462,20.044 3094.828,19.129C3096.419,18.063 3098.026,15.798 3098.497,12.834C3098.783,11.029 3098.451,9.18 3097.493,7.966C3096.975,7.309 3096.111,6.936 3095.217,6.943C3094.332,6.951 3093.716,7.55 3093.216,7.178C3092.956,6.986 3092.487,6.286 3091.394,6.213C3090.101,6.126 3088.916,6.709 3087.941,7.699C3086.142,9.527 3085.444,11.592 3085.32,13.713C3085.211,15.554 3085.734,16.626 3086.464,17.841C3086.832,18.453 3087.46,19.02 3088.172,19.208C3088.697,19.347 3089.15,19.168 3089.637,19.313ZM3093.727,9.982L3093.732,9.987C3093.885,10.131 3094.018,10.296 3094.131,10.478C3094.675,11.358 3094.745,12.663 3094.294,13.994C3093.86,15.272 3093.051,16.265 3092.117,16.707C3091.807,16.854 3091.482,16.941 3091.152,16.959L3090.324,17.171C3090.253,17.19 3090.179,17.166 3090.132,17.111L3089.593,16.485C3089.334,16.287 3089.121,16.036 3088.958,15.743C3088.469,14.867 3088.42,13.61 3088.855,12.328C3089.305,11.001 3090.161,9.98 3091.142,9.566C3091.345,9.48 3091.554,9.42 3091.766,9.388L3092.844,9.082C3092.917,9.062 3092.996,9.086 3093.044,9.145L3093.727,9.982ZM3089.976,12.451C3089.789,12.409 3089.576,12.67 3089.484,12.913C3089.364,13.231 3089.462,13.424 3089.668,13.478C3089.854,13.527 3090.055,13.386 3090.168,13.105C3090.268,12.855 3090.185,12.498 3089.976,12.451ZM3091.882,10.302C3091.69,10.043 3091.054,10.411 3090.684,10.772C3090.203,11.242 3090.084,11.616 3090.448,11.875C3090.711,12.062 3091.168,12.013 3091.574,11.564C3091.91,11.193 3092.12,10.623 3091.882,10.302ZM3094.62,4.28C3094.608,4.286 3094.593,4.285 3094.583,4.277C3094.572,4.268 3094.567,4.255 3094.571,4.241C3094.738,3.618 3095.232,2.506 3096.663,2.083C3098.35,1.583 3100.258,2.159 3101.132,2.853C3101.151,2.869 3101.163,2.893 3101.165,2.918C3101.166,2.943 3101.158,2.967 3101.141,2.986C3099.985,4.231 3098.768,5.564 3097.217,5.596C3096.094,5.619 3095.383,5.343 3094.969,5.088C3094.959,5.082 3094.953,5.072 3094.953,5.061C3094.953,5.049 3094.958,5.039 3094.967,5.032C3096.599,3.836 3097.824,3.371 3099.638,3.089C3099.64,3.089 3099.642,3.087 3099.642,3.085C3099.641,3.083 3099.64,3.081 3099.638,3.081C3097.742,3.074 3096.419,3.368 3094.62,4.28Z" style="fill:rgb(26,26,26);"/>
            </g>
        </g>
    </g>
</svg>
