<svg width="1884" height="420" viewBox="0 0 1884 420" fill="none" xmlns="http://www.w3.org/2000/svg">
<g clip-path="url(#clip0_11_148)">
<path d="M533.951 333.644C526.033 333.644 517.832 333.078 509.631 331.664C501.43 330.533 493.794 328.836 486.159 326.574C478.806 324.312 472.302 321.484 466.363 318.09C462.122 315.828 459.294 313 457.597 309.324C455.9 305.647 455.334 301.971 455.9 298.012C456.466 294.336 457.88 290.942 460.142 288.114C462.404 285.003 465.232 283.307 468.909 282.176C472.585 281.327 476.827 282.176 481.351 284.438C488.987 288.68 497.471 291.791 506.52 294.053C515.852 296.032 524.901 297.164 533.951 297.164C547.525 297.164 557.422 294.901 563.361 290.659C569.3 286.7 572.128 281.327 572.128 274.823C572.128 269.45 570.148 264.925 565.906 261.814C561.664 258.704 554.595 255.876 544.131 253.614L512.176 246.826C494.077 243.15 480.786 236.646 472.019 227.597C463.253 218.264 458.728 206.387 458.728 191.399C458.728 182.067 460.708 173.3 464.667 165.665C468.626 157.747 473.999 151.243 481.351 145.587C488.421 139.931 496.905 135.689 506.803 132.578C516.7 129.75 527.729 128.054 539.607 128.054C550.353 128.054 560.533 129.468 570.714 132.013C580.894 134.558 589.944 138.234 597.579 143.042C601.255 145.304 603.8 148.132 605.214 151.525C606.628 155.202 607.194 158.595 606.628 162.271C606.346 165.665 604.932 168.776 602.669 171.321C600.124 174.149 597.296 175.846 593.62 176.411C589.944 176.977 585.702 176.411 580.611 173.866C574.39 170.755 567.886 168.493 560.816 166.796C553.746 165.382 546.676 164.534 539.324 164.534C531.406 164.534 524.619 165.665 519.246 167.645C513.59 169.907 509.348 172.735 506.52 176.411C503.409 180.087 501.995 184.612 501.995 189.42C501.995 195.075 503.975 199.317 507.934 202.711C511.893 206.104 518.68 208.932 528.578 210.912L560.533 217.699C578.915 221.658 592.772 228.162 601.821 236.929C610.87 245.695 615.395 257.007 615.395 271.429C615.395 280.762 613.415 289.245 609.739 296.881C605.78 304.516 600.407 311.02 593.337 316.676C586.267 322.049 577.501 326.291 567.603 329.119C557.705 331.947 546.394 333.644 533.951 333.644Z" fill="white"/>
<path d="M714.937 333.644C701.928 333.644 690.9 331.381 682.133 327.14C673.649 322.898 667.145 316.676 662.903 308.192C658.661 299.709 656.399 289.245 656.399 276.802V223.637H644.522C639.149 223.637 634.907 222.223 632.079 219.396C629.251 216.568 627.837 212.608 627.837 207.801C627.837 202.428 629.251 198.469 632.079 195.924C634.907 193.096 639.149 191.682 644.522 191.682H656.399V170.19C656.399 163.12 658.378 157.747 662.055 154.07C665.731 150.394 671.104 148.415 677.891 148.415C684.961 148.415 690.051 150.394 693.728 154.07C697.404 157.747 699.101 163.12 699.101 170.19V191.682H725.966C731.339 191.682 735.298 193.096 738.126 195.924C740.954 198.469 742.368 202.428 742.368 207.801C742.368 212.608 740.954 216.568 738.126 219.396C735.298 222.223 731.339 223.637 725.966 223.637H699.101V275.106C699.101 283.024 701.08 288.962 704.756 292.922C708.433 296.881 714.089 298.86 722.29 298.86C725.117 298.86 727.663 298.577 730.208 298.012C732.753 297.446 735.015 297.163 736.995 296.881C739.54 296.881 741.802 297.446 743.499 299.426C745.196 301.123 746.044 305.082 746.044 311.02C746.044 315.545 745.196 319.504 743.782 322.898C742.368 326.291 739.823 328.836 735.864 330.25C733.318 331.099 729.925 331.947 725.683 332.513C721.441 333.078 718.048 333.644 714.937 333.644Z" fill="white"/>
<path d="M834.841 333.644C820.136 333.644 807.127 330.533 796.098 324.877C785.069 318.939 776.586 310.455 770.364 299.709C764.143 288.68 761.315 275.954 761.315 260.966C761.315 249.937 763.012 239.757 766.405 230.99C769.799 222.224 774.889 214.588 781.393 208.084C787.897 201.862 795.533 197.055 804.582 193.661C813.631 190.551 823.812 188.854 834.841 188.854C849.829 188.854 862.837 191.682 873.866 197.621C884.895 203.276 893.379 211.76 899.318 222.506C905.539 233.252 908.65 246.261 908.65 260.966C908.65 272.278 906.953 282.176 903.559 291.225C899.883 300.274 895.076 307.91 888.571 314.131C882.067 320.353 874.432 325.16 865.1 328.554C856.05 331.947 846.153 333.644 834.841 333.644ZM834.841 301.688C841.062 301.688 846.435 300.274 850.96 297.164C855.485 294.336 859.161 289.811 861.706 283.872C864.251 277.934 865.665 270.298 865.665 260.966C865.665 247.109 862.837 236.929 857.181 230.425C851.526 223.92 844.173 220.81 834.841 220.81C828.902 220.81 823.529 222.224 819.005 225.051C814.197 227.879 810.804 232.404 807.976 238.343C805.431 244.281 804.299 251.917 804.299 260.966C804.299 274.823 807.127 285.003 812.783 291.508C818.439 298.295 825.792 301.688 834.841 301.688Z" fill="white"/>
<path d="M964.642 333.078C957.572 333.078 952.482 331.099 948.806 327.422C945.129 323.746 943.15 318.373 943.15 311.303V210.912C943.15 203.842 945.129 198.469 948.806 194.793C952.482 191.116 957.572 189.42 964.077 189.42C970.864 189.42 975.954 191.116 979.63 194.793C983.024 198.469 985.003 203.842 985.003 210.912V227.031L981.892 217.699C986.134 208.367 992.639 201.297 1001.12 196.207C1009.89 191.399 1019.5 188.854 1030.53 188.854C1041.56 188.854 1050.61 190.834 1057.96 195.075C1065.03 199.317 1070.41 205.822 1074.08 214.305C1077.48 223.072 1079.46 234.101 1079.46 247.109V311.303C1079.46 318.373 1077.48 323.746 1073.8 327.422C1070.12 331.099 1065.03 333.078 1057.96 333.078C1051.18 333.078 1046.09 331.099 1042.13 327.422C1038.45 323.746 1036.75 318.373 1036.75 311.303V249.089C1036.75 239.474 1034.77 232.404 1031.38 228.162C1027.99 223.92 1022.61 221.941 1015.54 221.941C1006.5 221.941 999.426 224.769 994.053 230.425C988.679 236.08 985.852 243.716 985.852 253.048V311.303C985.852 325.726 978.782 333.078 964.642 333.078Z" fill="white"/>
<path d="M1192.01 333.644C1175.61 333.644 1161.75 330.533 1149.87 324.594C1137.99 318.656 1128.94 310.455 1122.44 299.709C1116.22 288.68 1113.11 275.954 1113.11 261.249C1113.11 246.826 1115.94 234.384 1122.16 223.355C1128.38 212.609 1136.86 204.125 1147.61 197.903C1158.36 191.965 1170.52 188.854 1184.37 188.854C1194.27 188.854 1203.32 190.551 1211.52 193.661C1219.72 197.055 1226.51 201.862 1232.45 207.801C1238.1 214.023 1242.63 221.375 1245.74 230.142C1248.85 238.908 1250.26 248.806 1250.26 259.552C1250.26 263.228 1249.13 265.774 1246.87 267.753C1244.61 269.45 1241.21 270.298 1236.97 270.298H1148.17V248.24H1219.44L1214.91 252.2C1214.91 244.281 1213.78 238.06 1211.52 232.687C1209.26 227.597 1206.15 223.637 1201.91 221.092C1197.66 218.547 1192.29 217.133 1186.07 217.133C1179.28 217.133 1173.34 218.83 1168.25 221.941C1163.45 225.051 1159.49 229.576 1156.94 235.798C1154.4 241.736 1152.98 249.089 1152.98 257.573V259.835C1152.98 274.257 1156.38 284.721 1162.88 291.508C1169.67 298.295 1179.56 301.688 1192.86 301.688C1197.38 301.688 1202.47 301.123 1208.41 299.992C1214.07 298.86 1219.72 297.164 1224.81 294.618C1229.34 292.356 1233.01 291.791 1236.41 292.639C1239.8 293.204 1242.34 294.901 1244.32 297.164C1246.02 299.709 1247.15 302.537 1247.43 305.647C1247.72 308.758 1247.15 312.152 1245.46 315.262C1243.76 318.373 1240.93 320.918 1236.97 322.898C1230.47 326.574 1223.11 329.119 1215.2 330.816C1207.28 332.795 1199.36 333.644 1192.01 333.644Z" fill="white"/>
<path d="M1315.02 333.078C1307.95 333.078 1302.86 331.099 1299.18 327.422C1295.23 323.746 1293.53 318.373 1293.53 311.303V223.637H1283.35C1277.98 223.637 1274.02 222.224 1271.19 219.396C1268.08 216.568 1266.66 212.609 1266.66 207.801C1266.66 202.428 1268.08 198.469 1271.19 195.924C1274.02 193.096 1277.98 191.682 1283.35 191.682H1305.97L1293.53 202.994V194.227C1293.53 174.149 1298.62 159.161 1308.8 148.98C1318.7 138.8 1333.69 132.861 1353.2 130.882L1362.25 130.033C1367.05 129.75 1371.01 130.316 1373.84 132.295C1376.67 133.992 1378.65 136.537 1379.78 139.648C1380.91 142.476 1380.91 145.587 1380.35 148.697C1379.78 152.091 1378.37 154.636 1376.39 156.898C1374.41 159.444 1371.86 160.575 1368.47 160.858L1364.51 161.14C1354.33 161.989 1346.98 164.251 1342.73 168.493C1338.49 172.452 1336.23 178.673 1336.23 186.874V196.489L1330.86 191.682H1356.31C1361.68 191.682 1365.92 193.096 1368.75 195.924C1371.58 198.469 1372.99 202.428 1372.99 207.801C1372.99 212.609 1371.58 216.568 1368.75 219.396C1365.92 222.224 1361.68 223.637 1356.31 223.637H1336.23V311.303C1336.23 325.726 1329.16 333.078 1315.02 333.078Z" fill="white"/>
<path d="M1421.35 333.078C1414.28 333.078 1408.91 331.099 1404.95 327.422C1401.27 323.746 1399.29 318.373 1399.29 311.303V210.912C1399.29 203.842 1401.27 198.469 1404.95 194.793C1408.63 191.116 1413.72 189.42 1420.22 189.42C1427.01 189.42 1432.1 191.116 1435.78 194.793C1439.17 198.469 1441.15 203.842 1441.15 210.912V225.617H1438.32C1440.58 214.305 1445.39 205.539 1453.31 199.317C1460.94 193.096 1471.12 189.702 1483.28 188.854C1488.09 188.571 1491.77 189.702 1494.31 192.53C1496.86 195.075 1498.27 199.6 1498.27 205.822C1498.55 211.76 1497.42 216.285 1494.88 219.678C1492.05 223.072 1487.53 225.051 1481.02 225.9L1474.52 226.465C1463.77 227.314 1455.85 230.425 1450.76 235.798C1445.39 241.171 1442.84 248.806 1442.84 258.704V311.303C1442.84 318.373 1441.15 323.746 1437.47 327.422C1433.8 331.099 1428.42 333.078 1421.35 333.078Z" fill="white"/>
<path d="M1575.47 333.644C1563.6 333.644 1553.98 331.381 1546.35 327.139C1538.71 322.615 1533.06 316.111 1529.38 307.627C1525.42 298.86 1523.72 287.831 1523.72 274.823V210.912C1523.72 203.842 1525.42 198.469 1529.1 194.793C1532.77 191.116 1538.15 189.419 1544.93 189.419C1551.72 189.419 1557.09 191.116 1560.77 194.793C1564.45 198.469 1566.42 203.842 1566.42 210.912V275.954C1566.42 284.155 1568.12 290.376 1571.52 294.335C1574.91 298.577 1580.28 300.557 1587.63 300.557C1595.84 300.557 1602.34 297.729 1607.71 291.79C1612.8 286.135 1615.35 278.499 1615.35 269.167V210.912C1615.35 203.842 1617.33 198.469 1621 194.793C1624.68 191.116 1629.77 189.419 1636.56 189.419C1643.63 189.419 1648.72 191.116 1652.39 194.793C1656.35 198.469 1658.05 203.842 1658.05 210.912V311.303C1658.05 325.725 1651.26 333.078 1637.41 333.078C1630.62 333.078 1625.53 331.099 1621.85 327.422C1618.18 323.746 1616.48 318.373 1616.48 311.303V292.356L1620.72 303.385C1616.48 313 1610.82 320.635 1602.9 325.725C1595.27 330.816 1585.94 333.644 1575.47 333.644Z" fill="white"/>
<path d="M1721.11 332.795C1714.04 332.795 1708.95 330.816 1705.27 326.857C1701.6 322.615 1699.62 316.959 1699.62 309.606V212.891C1699.62 205.256 1701.6 199.6 1705.27 195.641C1708.95 191.682 1714.04 189.702 1721.11 189.702C1727.9 189.702 1732.99 191.682 1736.95 195.641C1740.62 199.6 1742.32 205.256 1742.32 212.891V309.606C1742.32 316.959 1740.62 322.615 1736.95 326.857C1733.27 330.816 1727.9 332.795 1721.11 332.795ZM1721.11 166.231C1713.19 166.231 1707.25 164.534 1703.01 160.857C1698.77 156.898 1696.51 151.808 1696.51 145.021C1696.51 137.951 1698.77 132.861 1703.01 129.185C1707.25 125.508 1713.19 123.529 1721.11 123.529C1729.03 123.529 1734.97 125.508 1739.21 129.185C1743.17 132.861 1745.43 137.951 1745.43 145.021C1745.43 151.808 1743.17 156.898 1739.21 160.857C1734.97 164.534 1729.03 166.231 1721.11 166.231Z" fill="white"/>
<path d="M1852.04 333.644C1839.04 333.644 1828.01 331.381 1819.24 327.14C1810.76 322.898 1804.25 316.676 1800.01 308.192C1795.77 299.709 1793.51 289.245 1793.51 276.802V223.637H1781.63C1776.26 223.637 1772.01 222.223 1769.19 219.396C1766.36 216.568 1764.94 212.608 1764.94 207.801C1764.94 202.428 1766.36 198.469 1769.19 195.924C1772.01 193.096 1776.26 191.682 1781.63 191.682H1793.51V170.19C1793.51 163.12 1795.49 157.747 1799.16 154.07C1802.84 150.394 1808.21 148.415 1815 148.415C1822.07 148.415 1827.16 150.394 1830.84 154.07C1834.51 157.747 1836.21 163.12 1836.21 170.19V191.682H1863.07C1868.45 191.682 1872.41 193.096 1875.23 195.924C1878.06 198.469 1879.48 202.428 1879.48 207.801C1879.48 212.608 1878.06 216.568 1875.23 219.396C1872.41 222.223 1868.45 223.637 1863.07 223.637H1836.21V275.106C1836.21 283.024 1838.19 288.962 1841.86 292.922C1845.54 296.881 1851.2 298.86 1859.4 298.86C1862.23 298.86 1864.77 298.577 1867.32 298.012C1869.86 297.446 1872.12 297.163 1874.1 296.881C1876.65 296.881 1878.91 297.446 1880.61 299.426C1882.3 301.123 1883.15 305.082 1883.15 311.02C1883.15 315.545 1882.3 319.504 1880.89 322.898C1879.48 326.291 1876.93 328.836 1872.97 330.25C1870.43 331.099 1867.03 331.947 1862.79 332.513C1858.55 333.078 1855.16 333.644 1852.04 333.644Z" fill="white"/>
<path fill-rule="evenodd" clip-rule="evenodd" d="M205.002 99.0288L205.023 99.0505L205.044 99.0721C205.758 98.9424 214.533 97.3209 217.754 96.9318C250.745 92.8457 275.286 103.958 294.657 119.589C323.108 142.549 348.836 194.932 345.053 249.478C340.188 319.719 295.63 379.497 241.495 404.619C223.119 413.137 199.121 419.99 173.697 419.99C139.69 420.012 121.833 407.213 107.023 402.63C77.8156 393.614 51.4596 382.697 28.2837 353.683C11.8313 333.08 -1.37713 304.543 0.0929872 256.483C1.7793 201.375 26.7075 148.04 63.3307 115.2C88.3227 92.8025 117.634 77.8202 148.874 80.1335C159.251 80.8902 171.168 84.4574 179.772 89.5379C183.275 91.6134 186.212 93.7105 188.893 95.44H188.935L188.956 95.4184C192.134 66.2323 181.869 45.91 167.643 34.7544C164.227 32.0736 168.894 24.5717 174.278 21.3937C177.953 19.2101 185.39 14.6052 188.914 19.5776C196.438 30.236 208.612 66.2322 205.002 99.0288ZM109.852 376.578C122.802 380.448 123.861 389.55 145.221 393.29C171.597 397.895 192.545 392.382 222.077 372.6C256.473 349.554 291.22 300.586 301.402 236.506C307.585 197.483 300.405 157.509 279.693 131.263C268.494 117.059 249.818 108.995 230.49 109.147C211.357 109.32 198.04 122.27 187.23 114.227C181.609 110.076 171.469 94.9428 147.839 93.3646C119.886 91.4837 94.2639 104.088 73.185 125.491C34.2918 165.011 19.2047 209.655 16.5239 255.51C14.1674 295.311 25.4753 318.487 41.2574 344.755C49.2133 357.986 62.7904 370.244 78.1834 374.308C89.5336 377.313 99.3238 373.444 109.852 376.578ZM198.277 174.848L198.383 174.956C201.691 178.069 204.57 181.636 207.013 185.571C218.774 204.596 220.284 232.81 210.533 261.585C201.151 289.215 183.66 310.683 163.468 320.238C156.766 323.416 149.743 325.297 142.609 325.686L124.705 330.27C123.17 330.68 121.573 330.162 120.557 328.973L108.902 315.439C103.303 311.158 98.6978 305.732 95.1738 299.397C84.602 280.459 83.542 253.283 92.9464 225.567C102.675 196.878 121.184 174.805 142.392 165.854C146.781 163.995 151.3 162.698 155.883 162.006L179.186 155.391C180.765 154.958 182.471 155.477 183.509 156.753L198.277 174.848ZM117.184 228.226C113.141 227.318 108.532 232.961 106.543 238.214C103.949 245.089 106.069 249.262 110.523 250.429C114.544 251.489 118.889 248.44 121.332 242.365C123.494 236.96 121.702 229.242 117.184 228.226ZM158.39 181.766C154.239 176.167 140.49 184.123 132.49 191.927C122.092 202.088 119.517 210.174 127.386 215.773C133.072 219.816 142.952 218.757 151.729 209.05C158.993 201.029 163.536 188.706 158.39 181.766ZM217.585 51.5743C217.326 51.704 216.999 51.6824 216.783 51.5095C216.545 51.3149 216.438 51.0338 216.524 50.7312C220.135 37.2623 230.815 13.2215 261.753 4.07654C298.225 -6.73315 339.474 5.71961 358.369 20.7235C358.78 21.0694 359.039 21.5882 359.082 22.1287C359.104 22.6692 358.932 23.1881 358.565 23.5988C333.573 50.515 307.26 79.3336 273.729 80.0254C249.45 80.5227 234.078 74.5557 225.128 69.0428C224.911 68.913 224.779 68.6969 224.779 68.459C224.779 68.1996 224.891 67.9834 225.085 67.8321C260.368 41.9753 286.85 31.9223 326.067 25.8256C326.11 25.8256 326.157 25.7824 326.157 25.7392C326.135 25.6959 326.11 25.6527 326.067 25.6527C285.077 25.5013 256.478 31.8574 217.585 51.5743Z" fill="white"/>
</g>
<defs>
<clipPath id="clip0_11_148">
<rect width="1884" height="420" fill="white"/>
</clipPath>
</defs>
</svg>
