<?xml version="1.0" encoding="UTF-8" standalone="no"?>
<!DOCTYPE svg PUBLIC "-//W3C//DTD SVG 1.1//EN" "http://www.w3.org/Graphics/SVG/1.1/DTD/svg11.dtd">
<svg width="100%" height="100%" viewBox="0 0 1884 420" version="1.1" xmlns="http://www.w3.org/2000/svg" xmlns:xlink="http://www.w3.org/1999/xlink" xml:space="preserve" xmlns:serif="http://www.serif.com/" style="fill-rule:evenodd;clip-rule:evenodd;stroke-linejoin:round;stroke-miterlimit:2;">
    <g transform="matrix(1,0,0,1,-177.942732,-2191.471942)">
        <g transform="matrix(5.121978,0,0,2.282537,-18429.479406,1749.141613)">
            <g transform="matrix(0.787947,0,0,1,765.701136,0)">
                <g transform="matrix(0.700701,0,0,1.23894,3086.080714,-564.40207)">
                    <g transform="matrix(100,0,0,100,945.279616,728.849244)">
                        <path d="M0.323,0.011C0.295,0.011 0.266,0.009 0.237,0.004C0.208,0 0.181,-0.006 0.154,-0.014C0.128,-0.022 0.105,-0.032 0.084,-0.044C0.069,-0.052 0.059,-0.062 0.053,-0.075C0.047,-0.088 0.045,-0.101 0.047,-0.115C0.049,-0.128 0.054,-0.14 0.062,-0.15C0.07,-0.161 0.08,-0.167 0.093,-0.171C0.106,-0.174 0.121,-0.171 0.137,-0.163C0.164,-0.148 0.194,-0.137 0.226,-0.129C0.259,-0.122 0.291,-0.118 0.323,-0.118C0.371,-0.118 0.406,-0.126 0.427,-0.141C0.448,-0.155 0.458,-0.174 0.458,-0.197C0.458,-0.216 0.451,-0.232 0.436,-0.243C0.421,-0.254 0.396,-0.264 0.359,-0.272L0.246,-0.296C0.182,-0.309 0.135,-0.332 0.104,-0.364C0.073,-0.397 0.057,-0.439 0.057,-0.492C0.057,-0.525 0.064,-0.556 0.078,-0.583C0.092,-0.611 0.111,-0.634 0.137,-0.654C0.162,-0.674 0.192,-0.689 0.227,-0.7C0.262,-0.71 0.301,-0.716 0.343,-0.716C0.381,-0.716 0.417,-0.711 0.453,-0.702C0.489,-0.693 0.521,-0.68 0.548,-0.663C0.561,-0.655 0.57,-0.645 0.575,-0.633C0.58,-0.62 0.582,-0.608 0.58,-0.595C0.579,-0.583 0.574,-0.572 0.566,-0.563C0.557,-0.553 0.547,-0.547 0.534,-0.545C0.521,-0.543 0.506,-0.545 0.488,-0.554C0.466,-0.565 0.443,-0.573 0.418,-0.579C0.393,-0.584 0.368,-0.587 0.342,-0.587C0.314,-0.587 0.29,-0.583 0.271,-0.576C0.251,-0.568 0.236,-0.558 0.226,-0.545C0.215,-0.532 0.21,-0.516 0.21,-0.499C0.21,-0.479 0.217,-0.464 0.231,-0.452C0.245,-0.44 0.269,-0.43 0.304,-0.423L0.417,-0.399C0.482,-0.385 0.531,-0.362 0.563,-0.331C0.595,-0.3 0.611,-0.26 0.611,-0.209C0.611,-0.176 0.604,-0.146 0.591,-0.119C0.577,-0.092 0.558,-0.069 0.533,-0.049C0.508,-0.03 0.477,-0.015 0.442,-0.005C0.407,0.005 0.367,0.011 0.323,0.011Z" style="fill:rgb(26,26,26);fill-rule:nonzero;"/>
                    </g>
                    <g transform="matrix(100,0,0,100,1011.679616,728.849244)">
                        <path d="M0.299,0.011C0.253,0.011 0.214,0.003 0.183,-0.012C0.153,-0.027 0.13,-0.049 0.115,-0.079C0.1,-0.109 0.092,-0.146 0.092,-0.19L0.092,-0.378L0.05,-0.378C0.031,-0.378 0.016,-0.383 0.006,-0.393C-0.004,-0.403 -0.009,-0.417 -0.009,-0.434C-0.009,-0.453 -0.004,-0.467 0.006,-0.476C0.016,-0.486 0.031,-0.491 0.05,-0.491L0.092,-0.491L0.092,-0.567C0.092,-0.592 0.099,-0.611 0.112,-0.624C0.125,-0.637 0.144,-0.644 0.168,-0.644C0.193,-0.644 0.211,-0.637 0.224,-0.624C0.237,-0.611 0.243,-0.592 0.243,-0.567L0.243,-0.491L0.338,-0.491C0.357,-0.491 0.371,-0.486 0.381,-0.476C0.391,-0.467 0.396,-0.453 0.396,-0.434C0.396,-0.417 0.391,-0.403 0.381,-0.393C0.371,-0.383 0.357,-0.378 0.338,-0.378L0.243,-0.378L0.243,-0.196C0.243,-0.168 0.25,-0.147 0.263,-0.133C0.276,-0.119 0.296,-0.112 0.325,-0.112C0.335,-0.112 0.344,-0.113 0.353,-0.115C0.362,-0.117 0.37,-0.118 0.377,-0.119C0.386,-0.119 0.394,-0.117 0.4,-0.11C0.406,-0.104 0.409,-0.09 0.409,-0.069C0.409,-0.053 0.406,-0.039 0.401,-0.027C0.396,-0.015 0.387,-0.006 0.373,-0.001C0.364,0.002 0.352,0.005 0.337,0.007C0.322,0.009 0.31,0.011 0.299,0.011Z" style="fill:rgb(26,26,26);fill-rule:nonzero;"/>
                    </g>
                    <g transform="matrix(100,0,0,100,1054.579616,728.849244)">
                        <path d="M0.294,0.011C0.242,0.011 0.196,0 0.157,-0.02C0.118,-0.041 0.088,-0.071 0.066,-0.109C0.044,-0.148 0.034,-0.193 0.034,-0.246C0.034,-0.285 0.04,-0.321 0.052,-0.352C0.064,-0.383 0.082,-0.41 0.105,-0.433C0.128,-0.455 0.155,-0.472 0.187,-0.484C0.219,-0.495 0.255,-0.501 0.294,-0.501C0.347,-0.501 0.393,-0.491 0.432,-0.47C0.471,-0.45 0.501,-0.42 0.522,-0.382C0.544,-0.344 0.555,-0.298 0.555,-0.246C0.555,-0.206 0.549,-0.171 0.537,-0.139C0.524,-0.107 0.507,-0.08 0.484,-0.058C0.461,-0.036 0.434,-0.019 0.401,-0.007C0.369,0.005 0.334,0.011 0.294,0.011ZM0.294,-0.102C0.316,-0.102 0.335,-0.107 0.351,-0.118C0.367,-0.128 0.38,-0.144 0.389,-0.165C0.398,-0.186 0.403,-0.213 0.403,-0.246C0.403,-0.295 0.393,-0.331 0.373,-0.354C0.353,-0.377 0.327,-0.388 0.294,-0.388C0.273,-0.388 0.254,-0.383 0.238,-0.373C0.221,-0.363 0.209,-0.347 0.199,-0.326C0.19,-0.305 0.186,-0.278 0.186,-0.246C0.186,-0.197 0.196,-0.161 0.216,-0.138C0.236,-0.114 0.262,-0.102 0.294,-0.102Z" style="fill:rgb(26,26,26);fill-rule:nonzero;"/>
                    </g>
                    <g transform="matrix(100,0,0,100,1116.479616,728.849244)">
                        <path d="M0.134,0.009C0.109,0.009 0.091,0.002 0.078,-0.011C0.065,-0.024 0.058,-0.043 0.058,-0.068L0.058,-0.423C0.058,-0.448 0.065,-0.467 0.078,-0.48C0.091,-0.493 0.109,-0.499 0.132,-0.499C0.156,-0.499 0.174,-0.493 0.187,-0.48C0.199,-0.467 0.206,-0.448 0.206,-0.423L0.206,-0.366L0.195,-0.399C0.21,-0.432 0.233,-0.457 0.263,-0.475C0.294,-0.492 0.328,-0.501 0.367,-0.501C0.406,-0.501 0.438,-0.494 0.464,-0.479C0.489,-0.464 0.508,-0.441 0.521,-0.411C0.533,-0.38 0.54,-0.341 0.54,-0.295L0.54,-0.068C0.54,-0.043 0.533,-0.024 0.52,-0.011C0.507,0.002 0.489,0.009 0.464,0.009C0.44,0.009 0.422,0.002 0.408,-0.011C0.395,-0.024 0.389,-0.043 0.389,-0.068L0.389,-0.288C0.389,-0.322 0.382,-0.347 0.37,-0.362C0.358,-0.377 0.339,-0.384 0.314,-0.384C0.282,-0.384 0.257,-0.374 0.238,-0.354C0.219,-0.334 0.209,-0.307 0.209,-0.274L0.209,-0.068C0.209,-0.017 0.184,0.009 0.134,0.009Z" style="fill:rgb(26,26,26);fill-rule:nonzero;"/>
                    </g>
                    <g transform="matrix(100,0,0,100,1178.979616,728.849244)">
                        <path d="M0.313,0.011C0.255,0.011 0.206,0 0.164,-0.021C0.122,-0.042 0.09,-0.071 0.067,-0.109C0.045,-0.148 0.034,-0.193 0.034,-0.245C0.034,-0.296 0.044,-0.34 0.066,-0.379C0.088,-0.417 0.118,-0.447 0.156,-0.469C0.194,-0.49 0.237,-0.501 0.286,-0.501C0.321,-0.501 0.353,-0.495 0.382,-0.484C0.411,-0.472 0.435,-0.455 0.456,-0.434C0.476,-0.412 0.492,-0.386 0.503,-0.355C0.514,-0.324 0.519,-0.289 0.519,-0.251C0.519,-0.238 0.515,-0.229 0.507,-0.222C0.499,-0.216 0.487,-0.213 0.472,-0.213L0.158,-0.213L0.158,-0.291L0.41,-0.291L0.394,-0.277C0.394,-0.305 0.39,-0.327 0.382,-0.346C0.374,-0.364 0.363,-0.378 0.348,-0.387C0.333,-0.396 0.314,-0.401 0.292,-0.401C0.268,-0.401 0.247,-0.395 0.229,-0.384C0.212,-0.373 0.198,-0.357 0.189,-0.335C0.18,-0.314 0.175,-0.288 0.175,-0.258L0.175,-0.25C0.175,-0.199 0.187,-0.162 0.21,-0.138C0.234,-0.114 0.269,-0.102 0.316,-0.102C0.332,-0.102 0.35,-0.104 0.371,-0.108C0.391,-0.112 0.411,-0.118 0.429,-0.127C0.445,-0.135 0.458,-0.137 0.47,-0.134C0.482,-0.132 0.491,-0.126 0.498,-0.118C0.504,-0.109 0.508,-0.099 0.509,-0.088C0.51,-0.077 0.508,-0.065 0.502,-0.054C0.496,-0.043 0.486,-0.034 0.472,-0.027C0.449,-0.014 0.423,-0.005 0.395,0.001C0.367,0.008 0.339,0.011 0.313,0.011Z" style="fill:rgb(26,26,26);fill-rule:nonzero;"/>
                    </g>
                    <g transform="matrix(100,0,0,100,1236.579616,728.849244)">
                        <path d="M0.172,0.009C0.147,0.009 0.129,0.002 0.116,-0.011C0.102,-0.024 0.096,-0.043 0.096,-0.068L0.096,-0.378L0.06,-0.378C0.041,-0.378 0.027,-0.383 0.017,-0.393C0.006,-0.403 0.001,-0.417 0.001,-0.434C0.001,-0.453 0.006,-0.467 0.017,-0.476C0.027,-0.486 0.041,-0.491 0.06,-0.491L0.14,-0.491L0.096,-0.451L0.096,-0.482C0.096,-0.553 0.114,-0.606 0.15,-0.642C0.185,-0.678 0.238,-0.699 0.307,-0.706L0.339,-0.709C0.356,-0.71 0.37,-0.708 0.38,-0.701C0.39,-0.695 0.397,-0.686 0.401,-0.675C0.405,-0.665 0.405,-0.654 0.403,-0.643C0.401,-0.631 0.396,-0.622 0.389,-0.614C0.382,-0.605 0.373,-0.601 0.361,-0.6L0.347,-0.599C0.311,-0.596 0.285,-0.588 0.27,-0.573C0.255,-0.559 0.247,-0.537 0.247,-0.508L0.247,-0.474L0.228,-0.491L0.318,-0.491C0.337,-0.491 0.352,-0.486 0.362,-0.476C0.372,-0.467 0.377,-0.453 0.377,-0.434C0.377,-0.417 0.372,-0.403 0.362,-0.393C0.352,-0.383 0.337,-0.378 0.318,-0.378L0.247,-0.378L0.247,-0.068C0.247,-0.017 0.222,0.009 0.172,0.009Z" style="fill:rgb(26,26,26);fill-rule:nonzero;"/>
                    </g>
                    <g transform="matrix(100,0,0,100,1277.779616,728.849244)">
                        <path d="M0.136,0.009C0.111,0.009 0.092,0.002 0.078,-0.011C0.065,-0.024 0.058,-0.043 0.058,-0.068L0.058,-0.423C0.058,-0.448 0.065,-0.467 0.078,-0.48C0.091,-0.493 0.109,-0.499 0.132,-0.499C0.156,-0.499 0.174,-0.493 0.187,-0.48C0.199,-0.467 0.206,-0.448 0.206,-0.423L0.206,-0.371L0.196,-0.371C0.204,-0.411 0.221,-0.442 0.249,-0.464C0.276,-0.486 0.312,-0.498 0.355,-0.501C0.372,-0.502 0.385,-0.498 0.394,-0.488C0.403,-0.479 0.408,-0.463 0.408,-0.441C0.409,-0.42 0.405,-0.404 0.396,-0.392C0.386,-0.38 0.37,-0.373 0.347,-0.37L0.324,-0.368C0.286,-0.365 0.258,-0.354 0.24,-0.335C0.221,-0.316 0.212,-0.289 0.212,-0.254L0.212,-0.068C0.212,-0.043 0.206,-0.024 0.193,-0.011C0.18,0.002 0.161,0.009 0.136,0.009Z" style="fill:rgb(26,26,26);fill-rule:nonzero;"/>
                    </g>
                    <g transform="matrix(100,0,0,100,1321.979616,728.849244)">
                        <path d="M0.239,0.011C0.197,0.011 0.163,0.003 0.136,-0.012C0.109,-0.028 0.089,-0.051 0.076,-0.081C0.062,-0.112 0.056,-0.151 0.056,-0.197L0.056,-0.423C0.056,-0.448 0.062,-0.467 0.075,-0.48C0.088,-0.493 0.107,-0.499 0.131,-0.499C0.155,-0.499 0.174,-0.493 0.187,-0.48C0.2,-0.467 0.207,-0.448 0.207,-0.423L0.207,-0.193C0.207,-0.164 0.213,-0.142 0.225,-0.128C0.237,-0.113 0.256,-0.106 0.282,-0.106C0.311,-0.106 0.334,-0.116 0.353,-0.137C0.371,-0.157 0.38,-0.184 0.38,-0.217L0.38,-0.423C0.38,-0.448 0.387,-0.467 0.4,-0.48C0.413,-0.493 0.431,-0.499 0.455,-0.499C0.48,-0.499 0.498,-0.493 0.511,-0.48C0.525,-0.467 0.531,-0.448 0.531,-0.423L0.531,-0.068C0.531,-0.017 0.507,0.009 0.458,0.009C0.434,0.009 0.416,0.002 0.403,-0.011C0.39,-0.024 0.384,-0.043 0.384,-0.068L0.384,-0.135L0.399,-0.096C0.384,-0.062 0.364,-0.035 0.336,-0.017C0.309,0.001 0.276,0.011 0.239,0.011Z" style="fill:rgb(26,26,26);fill-rule:nonzero;"/>
                    </g>
                    <g transform="matrix(100,0,0,100,1383.979616,728.849244)">
                        <path d="M0.134,0.008C0.109,0.008 0.091,0.001 0.078,-0.013C0.065,-0.028 0.058,-0.048 0.058,-0.074L0.058,-0.416C0.058,-0.443 0.065,-0.463 0.078,-0.477C0.091,-0.491 0.109,-0.498 0.134,-0.498C0.158,-0.498 0.176,-0.491 0.19,-0.477C0.203,-0.463 0.209,-0.443 0.209,-0.416L0.209,-0.074C0.209,-0.048 0.203,-0.028 0.19,-0.013C0.177,0.001 0.158,0.008 0.134,0.008ZM0.134,-0.581C0.106,-0.581 0.085,-0.587 0.07,-0.6C0.055,-0.614 0.047,-0.632 0.047,-0.656C0.047,-0.681 0.055,-0.699 0.07,-0.712C0.085,-0.725 0.106,-0.732 0.134,-0.732C0.162,-0.732 0.183,-0.725 0.198,-0.712C0.212,-0.699 0.22,-0.681 0.22,-0.656C0.22,-0.632 0.212,-0.614 0.198,-0.6C0.183,-0.587 0.162,-0.581 0.134,-0.581Z" style="fill:rgb(26,26,26);fill-rule:nonzero;"/>
                    </g>
                    <g transform="matrix(100,0,0,100,1413.779616,728.849244)">
                        <path d="M0.299,0.011C0.253,0.011 0.214,0.003 0.183,-0.012C0.153,-0.027 0.13,-0.049 0.115,-0.079C0.1,-0.109 0.092,-0.146 0.092,-0.19L0.092,-0.378L0.05,-0.378C0.031,-0.378 0.016,-0.383 0.006,-0.393C-0.004,-0.403 -0.009,-0.417 -0.009,-0.434C-0.009,-0.453 -0.004,-0.467 0.006,-0.476C0.016,-0.486 0.031,-0.491 0.05,-0.491L0.092,-0.491L0.092,-0.567C0.092,-0.592 0.099,-0.611 0.112,-0.624C0.125,-0.637 0.144,-0.644 0.168,-0.644C0.193,-0.644 0.211,-0.637 0.224,-0.624C0.237,-0.611 0.243,-0.592 0.243,-0.567L0.243,-0.491L0.338,-0.491C0.357,-0.491 0.371,-0.486 0.381,-0.476C0.391,-0.467 0.396,-0.453 0.396,-0.434C0.396,-0.417 0.391,-0.403 0.381,-0.393C0.371,-0.383 0.357,-0.378 0.338,-0.378L0.243,-0.378L0.243,-0.196C0.243,-0.168 0.25,-0.147 0.263,-0.133C0.276,-0.119 0.296,-0.112 0.325,-0.112C0.335,-0.112 0.344,-0.113 0.353,-0.115C0.362,-0.117 0.37,-0.118 0.377,-0.119C0.386,-0.119 0.394,-0.117 0.4,-0.11C0.406,-0.104 0.409,-0.09 0.409,-0.069C0.409,-0.053 0.406,-0.039 0.401,-0.027C0.396,-0.015 0.387,-0.006 0.373,-0.001C0.364,0.002 0.352,0.005 0.337,0.007C0.322,0.009 0.31,0.011 0.299,0.011Z" style="fill:rgb(26,26,26);fill-rule:nonzero;"/>
                    </g>
                    <g transform="matrix(100,0,0,100,1454.179616,728.849244)">
                    </g>
                </g>
                <g id="Symbol" transform="matrix(5.356833,0,0,9.471644,-12884.680891,175.845462)">
                    <path d="M3094.038,6.475C3094.038,6.475 3094.038,6.476 3094.039,6.476C3094.039,6.477 3094.04,6.477 3094.04,6.477C3094.073,6.471 3094.479,6.396 3094.628,6.378C3096.154,6.189 3097.289,6.703 3098.185,7.426C3099.501,8.488 3100.691,10.911 3100.516,13.434C3100.291,16.683 3098.23,19.448 3095.726,20.61C3094.876,21.004 3093.766,21.321 3092.59,21.321C3091.017,21.322 3090.191,20.73 3089.506,20.518C3088.155,20.101 3086.936,19.596 3085.864,18.254C3085.103,17.301 3084.492,15.981 3084.56,13.758C3084.638,11.209 3085.791,8.742 3087.485,7.223C3088.641,6.187 3089.997,5.494 3091.442,5.601C3091.922,5.636 3092.473,5.801 3092.871,6.036C3093.033,6.132 3093.169,6.229 3093.293,6.309C3093.294,6.31 3093.294,6.31 3093.295,6.309C3093.295,6.309 3093.296,6.309 3093.296,6.308C3093.443,4.958 3092.968,4.018 3092.31,3.502C3092.152,3.378 3092.368,3.031 3092.617,2.884C3092.787,2.783 3093.131,2.57 3093.294,2.8C3093.642,3.293 3094.205,4.958 3094.038,6.475ZM3089.637,19.313C3090.236,19.492 3090.285,19.913 3091.273,20.086C3092.493,20.299 3093.462,20.044 3094.828,19.129C3096.419,18.063 3098.026,15.798 3098.497,12.834C3098.783,11.029 3098.451,9.18 3097.493,7.966C3096.975,7.309 3096.111,6.936 3095.217,6.943C3094.332,6.951 3093.716,7.55 3093.216,7.178C3092.956,6.986 3092.487,6.286 3091.394,6.213C3090.101,6.126 3088.916,6.709 3087.941,7.699C3086.142,9.527 3085.444,11.592 3085.32,13.713C3085.211,15.554 3085.734,16.626 3086.464,17.841C3086.832,18.453 3087.46,19.02 3088.172,19.208C3088.697,19.347 3089.15,19.168 3089.637,19.313ZM3093.727,9.982L3093.732,9.987C3093.885,10.131 3094.018,10.296 3094.131,10.478C3094.675,11.358 3094.745,12.663 3094.294,13.994C3093.86,15.272 3093.051,16.265 3092.117,16.707C3091.807,16.854 3091.482,16.941 3091.152,16.959L3090.324,17.171C3090.253,17.19 3090.179,17.166 3090.132,17.111L3089.593,16.485C3089.334,16.287 3089.121,16.036 3088.958,15.743C3088.469,14.867 3088.42,13.61 3088.855,12.328C3089.305,11.001 3090.161,9.98 3091.142,9.566C3091.345,9.48 3091.554,9.42 3091.766,9.388L3092.844,9.082C3092.917,9.062 3092.996,9.086 3093.044,9.145L3093.727,9.982ZM3089.976,12.451C3089.789,12.409 3089.576,12.67 3089.484,12.913C3089.364,13.231 3089.462,13.424 3089.668,13.478C3089.854,13.527 3090.055,13.386 3090.168,13.105C3090.268,12.855 3090.185,12.498 3089.976,12.451ZM3091.882,10.302C3091.69,10.043 3091.054,10.411 3090.684,10.772C3090.203,11.242 3090.084,11.616 3090.448,11.875C3090.711,12.062 3091.168,12.013 3091.574,11.564C3091.91,11.193 3092.12,10.623 3091.882,10.302ZM3094.62,4.28C3094.608,4.286 3094.593,4.285 3094.583,4.277C3094.572,4.268 3094.567,4.255 3094.571,4.241C3094.738,3.618 3095.232,2.506 3096.663,2.083C3098.35,1.583 3100.258,2.159 3101.132,2.853C3101.151,2.869 3101.163,2.893 3101.165,2.918C3101.166,2.943 3101.158,2.967 3101.141,2.986C3099.985,4.231 3098.768,5.564 3097.217,5.596C3096.094,5.619 3095.383,5.343 3094.969,5.088C3094.959,5.082 3094.953,5.072 3094.953,5.061C3094.953,5.049 3094.958,5.039 3094.967,5.032C3096.599,3.836 3097.824,3.371 3099.638,3.089C3099.64,3.089 3099.642,3.087 3099.642,3.085C3099.641,3.083 3099.64,3.081 3099.638,3.081C3097.742,3.074 3096.419,3.368 3094.62,4.28Z" style="fill:rgb(26,26,26);"/>
                </g>
            </g>
        </g>
    </g>
</svg>
